PathFileType	4	(x/y/z)	S09_P20_T27
DataRate	CameraRate	NumFrames	NumMarkers	Units	OrigDataRate	OrigDataStartFrame	OrigNumFrames
240	240	4	51	mm	240	50	394
Frame#	Time	Sternum			R.Acromium			L.Acromium			Top.Head			R.ASIS			L.ASIS			R.PSIS			L.PSIS			R.Great.Tro			L.Great.Tro			R.Iliac.Crest			L.Iliac.Crest			V.Sacral			R.Thigh.Upper.Post			R.Thigh.Lower.Ant			R.Thigh.Lower.Post			R.Thigh.Upper.Ant			R.Knee.Lat			R.Knee.Med			R.Shank.Upper.Post			R.Shank.Lower.Ant			R.Shank.Lower.Post			R.Shank.Upper.Ant			R.Ankle.Lat			R.Ankle.Med			R.Heel.Upper			R.Heel.Med			R.Heel.Lat			R.Toe.Lat			R.Toe.Med			R.Toe.Tip			L.Thigh.Upper.Post			L.Thigh.Lower.Ant			L.Thigh.Lower.Post			L.Thigh.Upper.Ant			L.Knee.Lat			L.Knee.Med			L.Shank.Upper.Post			L.Shank.Lower.Ant			L.Shank.Lower.Post			L.Shank.Upper.Ant			L.Ankle.Lat			L.Ankle.Med			L.Heel.Upper			L.Heel.Med			L.Heel.Lat			L.Toe.Lat			L.Toe.Med			L.Toe.Tip			Cervical.Spine			Back			
		X1	Y1	Z1	X2	Y2	Z2	X3	Y3	Z3	X4	Y4	Z4	X5	Y5	Z5	X6	Y6	Z6	X7	Y7	Z7	X8	Y8	Z8	X9	Y9	Z9	X10	Y10	Z10	X11	Y11	Z11	X12	Y12	Z12	X13	Y13	Z13	X14	Y14	Z14	X15	Y15	Z15	X16	Y16	Z16	X17	Y17	Z17	X18	Y18	Z18	X19	Y19	Z19	X20	Y20	Z20	X21	Y21	Z21	X22	Y22	Z22	X23	Y23	Z23	X24	Y24	Z24	X25	Y25	Z25	X26	Y26	Z26	X27	Y27	Z27	X28	Y28	Z28	X29	Y29	Z29	X30	Y30	Z30	X31	Y31	Z31	X32	Y32	Z32	X33	Y33	Z33	X34	Y34	Z34	X35	Y35	Z35	X36	Y36	Z36	X37	Y37	Z37	X38	Y38	Z38	X39	Y39	Z39	X40	Y40	Z40	X41	Y41	Z41	X42	Y42	Z42	X43	Y43	Z43	X44	Y44	Z44	X45	Y45	Z45	X46	Y46	Z46	X47	Y47	Z47	X48	Y48	Z48	X49	Y49	Z49	X50	Y50	Z50	X51	Y51	Z51	

50	0.20417	NaN	NaN	NaN	-1192	1431.9	477.83	-1198.2	1435.7	166.65	-1176.7	1742.2	318.32	-1121.1	1013.2	435.34	-1123.5	1026.5	190.06	-1347.8	1036.3	364.3	-1343.1	1043.4	274.92	-1202.2	924.5	509.47	-1195.4	936.01	122.62	-1208.5	1090.1	481.74	-1231.4	1120.5	161.24	-1360.9	1003	314.44	-1171.3	680.1	498.49	-1083.1	586.99	484.5	-1163.6	587.82	478.19	-1100.1	675.43	500.71	-1108.8	503.89	476.09	-1098.2	488.82	353.78	-1273.8	434.81	471.78	-1276.7	343.14	469.74	-1334.3	388.32	460.42	-1223.6	393.87	481.46	-1470.1	259.2	446.06	-1426.6	226.07	364.02	-1499.3	292.27	384.38	-1517.7	265.87	355.29	NaN	NaN	NaN	-1468.3	134.42	483.62	-1430.1	91.214	387.33	-1400.9	60.859	441.19	-1214.3	669.48	178.2	-1114.6	588.88	180.1	-1185.8	587.52	201.62	-1144.2	669.5	154.46	-1118.6	508.62	197.49	-1095.8	528.97	326.04	-1159.2	374.34	190.59	-1094.5	286.54	207.83	-1156.7	297.86	200.59	-1096.9	363.58	198.11	-1137	101.79	232.74	-1116.4	102	327.43	-1204	69.911	291.61	-1190.1	47.515	323.41	-1204.6	40.707	263.93	-1033.2	41.765	202.35	-992.16	47.264	309.08	-943.49	62.906	247.29	-1290.2	1485.6	333.44	-1330.6	1220	319.91
51	0.20833	NaN	NaN	NaN	-1187	1432.6	477.38	-1192.7	1436.4	166.17	-1171.4	1742.9	317.93	-1116.2	1014	434.59	-1118.7	1027.1	189.3	-1342.9	1037.1	363.38	-1338.1	1044	274	-1197.5	925.32	508.67	-1190.8	936.45	121.89	-1203.7	1090.8	480.96	-1226.4	1121.1	160.45	-1356	1003.7	313.57	-1163.5	681.41	497.96	-1074	589.22	483.98	-1154.3	589.16	477.9	-1091.9	677.51	500.13	-1098.7	505.81	475.68	-1088.1	491.02	353.16	-1263.2	435.77	471.28	-1265.8	344.21	468.99	-1323.5	389.04	459.98	-1212.9	395.12	480.72	-1458.4	259.67	445.25	-1415.3	226.91	363.03	-1488.8	291.93	383.64	-1507.1	265.13	354.79	NaN	NaN	NaN	-1454.6	135.25	483.46	-1416.5	92.214	386.99	-1386.4	62.412	440.84	-1211	670.14	178.06	-1112	588.86	179.98	-1183	588.03	201.44	-1140.9	669.74	154.23	-1116.3	508.67	197.29	-1093.3	528.9	325.89	-1157.5	374.54	190.48	-1093.3	286.44	207.75	-1155.4	298.1	200.5	-1095.3	363.44	197.99	-1136.7	101.92	232.83	-1116.1	102.1	327.5	-1204	70.112	291.64	-1190	47.629	323.43	-1204.5	40.938	263.94	-1033.2	41.738	202.32	-992.08	47.052	309.11	-943.4	62.605	247.29	-1284.9	1486.4	332.83	-1325.5	1220.8	319.06
52	0.2125	NaN	NaN	NaN	-1182	1433.2	476.94	-1187.2	1437.1	165.71	-1166	1743.6	317.54	-1111.4	1014.8	433.87	-1113.9	1027.6	188.56	-1337.9	1037.8	362.44	-1333.2	1044.7	273.06	-1192.7	926.18	507.87	-1186.2	936.89	121.19	-1198.9	1091.6	480.16	-1221.4	1121.7	159.65	-1351.2	1004.4	312.67	-1155.6	682.77	497.46	-1064.9	591.52	483.39	-1145.2	590.56	477.63	-1083.8	679.63	499.49	-1088.7	507.79	475.19	-1078	493.26	352.51	-1252.6	436.6	470.77	-1254.8	345.15	468.21	-1312.7	389.56	459.52	-1202.2	396.31	479.95	-1446.3	259.79	444.41	-1403.8	227.49	362.05	-1478.2	291.25	382.83	-1496.3	264.02	354.23	NaN	NaN	NaN	-1440.7	135.87	483.35	-1402.6	92.989	386.79	-1371.6	63.91	440.54	-1207.7	670.83	177.92	-1109.5	588.85	179.86	-1180.2	588.54	201.26	-1137.7	670	154	-1114	508.73	197.08	-1090.8	528.84	325.73	-1155.9	374.75	190.35	-1092	286.37	207.67	-1154	298.34	200.4	-1093.8	363.31	197.86	-1136.4	102.04	232.91	-1115.8	102.21	327.55	-1203.9	70.322	291.66	-1190	47.752	323.45	-1204.4	41.172	263.95	-1033.1	41.708	202.3	-991.99	46.862	309.14	-943.3	62.319	247.28	-1279.6	1487.1	332.23	-1320.5	1221.6	318.21
53	0.21667	NaN	NaN	NaN	-1177	1433.8	476.52	-1181.7	1437.9	165.25	-1160.6	1744.3	317.16	-1106.5	1015.7	433.17	-1109.1	1028.2	187.85	-1333.1	1038.6	361.49	-1328.2	1045.3	272.1	-1188	927.08	507.07	-1181.6	937.31	120.52	-1194.1	1092.5	479.33	-1216.3	1122.3	158.83	-1346.3	1005.1	311.75	-1147.7	684.17	496.98	-1056	593.86	482.72	-1136	592.04	477.39	-1075.7	681.79	498.79	-1078.7	509.82	474.65	-1067.8	495.54	351.8	-1242	437.31	470.25	-1243.8	345.96	467.39	-1301.8	389.88	459.07	-1191.5	397.42	479.14	-1434.1	259.57	443.55	-1392.1	227.8	361.08	-1467.5	290.23	381.95	-1485.3	262.54	353.59	NaN	NaN	NaN	-1426.7	136.3	483.3	-1388.4	93.539	386.72	-1356.5	65.329	440.31	-1204.4	671.55	177.79	-1106.9	588.87	179.74	-1177.4	589.07	201.06	-1134.5	670.28	153.78	-1111.8	508.82	196.86	-1088.4	528.8	325.56	-1154.3	374.97	190.21	-1090.8	286.31	207.59	-1152.7	298.59	200.29	-1092.3	363.21	197.74	-1136.1	102.18	232.98	-1115.5	102.33	327.57	-1203.8	70.541	291.67	-1189.9	47.883	323.48	-1204.3	41.409	263.95	-1033	41.673	202.28	-991.91	46.693	309.15	-943.21	62.047	247.26	-1274.4	1487.9	331.64	-1315.5	1222.4	317.35
